{
  "asset": {
    "generator": "Khronos glTF Blender I/O v1.6.16",
    "version": "2.0"
  },
  "scene": 0,
  "scenes": [
    {
      "name": "Scene",
      "nodes": [
        0,
        1,
        2,
        3,
        4
      ]
    }
  ],
  "nodes": [
    {
      "mesh": 0,
      "name": "Solider-main",
      "rotation": [
        0.7071068286895752,
        0,
        0,
        0.7071067094802856
      ],
      "scale": [
        0.009999999776482582,
        0.009999999776482582,
        0.009999999776482582
      ]
    },
    {
      "mesh": 1,
      "name": "Bag",
      "rotation": [
        0.7071068286895752,
        0,
        0,
        0.7071067094802856
      ],
      "scale": [
        0.009999999776482582,
        0.009999999776482582,
        0.009999999776482582
      ]
    },
    {
      "mesh": 2,
      "name": "Hat",
      "rotation": [
        0.7071068286895752,
        0,
        0,
        0.7071067094802856
      ],
      "scale": [
        0.009999999776482582,
        0.009999999776482582,
        0.009999999776482582
      ]
    },
    {
      "mesh": 3,
      "name": "Belt",
      "rotation": [
        0.7071068286895752,
        0,
        0,
        0.7071067094802856
      ],
      "scale": [
        0.009999999776482582,
        0.009999999776482582,
        0.009999999776482582
      ]
    },
    {
      "mesh": 4,
      "name": "Flask",
      "rotation": [
        0.7071068286895752,
        0,
        0,
        0.7071067094802856
      ],
      "scale": [
        0.009999999776482582,
        0.009999999776482582,
        0.009999999776482582
      ]
    }
  ],
  "materials": [
    {
      "doubleSided": true,
      "name": "lambert1",
      "pbrMetallicRoughness": {
        "baseColorFactor": [
          0.5,
          0.5,
          0.5,
          1
        ],
        "metallicFactor": 0,
        "roughnessFactor": 0.5527864098548889
      }
    },
    {
      "doubleSided": true,
      "name": "lambert1.002",
      "pbrMetallicRoughness": {
        "baseColorFactor": [
          0.5,
          0.5,
          0.5,
          1
        ],
        "metallicFactor": 0,
        "roughnessFactor": 0.5527864098548889
      }
    },
    {
      "doubleSided": true,
      "name": "lambert1.004",
      "pbrMetallicRoughness": {
        "baseColorFactor": [
          0.5,
          0.5,
          0.5,
          1
        ],
        "metallicFactor": 0,
        "roughnessFactor": 0.5527864098548889
      }
    },
    {
      "doubleSided": true,
      "name": "lambert1.003",
      "pbrMetallicRoughness": {
        "baseColorFactor": [
          0.5,
          0.5,
          0.5,
          1
        ],
        "metallicFactor": 0,
        "roughnessFactor": 0.5527864098548889
      }
    },
    {
      "doubleSided": true,
      "name": "lambert1.001",
      "pbrMetallicRoughness": {
        "baseColorFactor": [
          0.5,
          0.5,
          0.5,
          1
        ],
        "metallicFactor": 0,
        "roughnessFactor": 0.5527864098548889
      }
    }
  ],
  "meshes": [
    {
      "name": "Mesh",
      "primitives": [
        {
          "attributes": {
            "POSITION": 0,
            "NORMAL": 1
          },
          "indices": 2,
          "material": 0
        }
      ]
    },
    {
      "name": "Mesh.002",
      "primitives": [
        {
          "attributes": {
            "POSITION": 3,
            "NORMAL": 4
          },
          "indices": 5,
          "material": 1
        }
      ]
    },
    {
      "name": "Mesh.004",
      "primitives": [
        {
          "attributes": {
            "POSITION": 6,
            "NORMAL": 7
          },
          "indices": 8,
          "material": 2
        }
      ]
    },
    {
      "name": "Mesh.003",
      "primitives": [
        {
          "attributes": {
            "POSITION": 9,
            "NORMAL": 10
          },
          "indices": 11,
          "material": 3
        }
      ]
    },
    {
      "name": "Mesh.001",
      "primitives": [
        {
          "attributes": {
            "POSITION": 12,
            "NORMAL": 13
          },
          "indices": 14,
          "material": 4
        }
      ]
    }
  ],
  "accessors": [
    {
      "bufferView": 0,
      "componentType": 5126,
      "count": 48631,
      "max": [
        10.946775436401367,
        9.477660179138184,
        0.07655715942382812
      ],
      "min": [
        -5.038328647613525,
        1.3673519561052672e-7,
        -25.323442459106445
      ],
      "type": "VEC3"
    },
    {
      "bufferView": 1,
      "componentType": 5126,
      "count": 48631,
      "type": "VEC3"
    },
    {
      "bufferView": 2,
      "componentType": 5123,
      "count": 291849,
      "type": "SCALAR"
    },
    {
      "bufferView": 3,
      "componentType": 5126,
      "count": 4627,
      "max": [
        1.5575065612792969,
        2.288753032684326,
        -13.335927963256836
      ],
      "min": [
        -2.0500926971435547,
        0.05796801298856735,
        -16.58060646057129
      ],
      "type": "VEC3"
    },
    {
      "bufferView": 4,
      "componentType": 5126,
      "count": 4627,
      "type": "VEC3"
    },
    {
      "bufferView": 5,
      "componentType": 5123,
      "count": 27741,
      "type": "SCALAR"
    },
    {
      "bufferView": 6,
      "componentType": 5126,
      "count": 3952,
      "max": [
        2.342100143432617,
        5.231502056121826,
        -22.335735321044922
      ],
      "min": [
        -1.0038418769836426,
        1.9496079683303833,
        -25.4765567779541
      ],
      "type": "VEC3"
    },
    {
      "bufferView": 7,
      "componentType": 5126,
      "count": 3952,
      "type": "VEC3"
    },
    {
      "bufferView": 8,
      "componentType": 5123,
      "count": 23700,
      "type": "SCALAR"
    },
    {
      "bufferView": 9,
      "componentType": 5126,
      "count": 3252,
      "max": [
        2.8600354194641113,
        5.351873874664307,
        -13.93709945678711
      ],
      "min": [
        -2.1776516437530518,
        1.5841050148010254,
        -15.386399269104004
      ],
      "type": "VEC3"
    },
    {
      "bufferView": 10,
      "componentType": 5126,
      "count": 3252,
      "type": "VEC3"
    },
    {
      "bufferView": 11,
      "componentType": 5123,
      "count": 19815,
      "type": "SCALAR"
    },
    {
      "bufferView": 12,
      "componentType": 5126,
      "count": 2561,
      "max": [
        -1.744520664215088,
        3.817790985107422,
        -13.05750560760498
      ],
      "min": [
        -3.322065591812134,
        1.6531950235366821,
        -16.104976654052734
      ],
      "type": "VEC3"
    },
    {
      "bufferView": 13,
      "componentType": 5126,
      "count": 2561,
      "type": "VEC3"
    },
    {
      "bufferView": 14,
      "componentType": 5123,
      "count": 15354,
      "type": "SCALAR"
    }
  ],
  "bufferViews": [
    {
      "buffer": 0,
      "byteLength": 583572,
      "byteOffset": 0
    },
    {
      "buffer": 0,
      "byteLength": 583572,
      "byteOffset": 583572
    },
    {
      "buffer": 0,
      "byteLength": 583700,
      "byteOffset": 1167144
    },
    {
      "buffer": 0,
      "byteLength": 55524,
      "byteOffset": 1750844
    },
    {
      "buffer": 0,
      "byteLength": 55524,
      "byteOffset": 1806368
    },
    {
      "buffer": 0,
      "byteLength": 55484,
      "byteOffset": 1861892
    },
    {
      "buffer": 0,
      "byteLength": 47424,
      "byteOffset": 1917376
    },
    {
      "buffer": 0,
      "byteLength": 47424,
      "byteOffset": 1964800
    },
    {
      "buffer": 0,
      "byteLength": 47400,
      "byteOffset": 2012224
    },
    {
      "buffer": 0,
      "byteLength": 39024,
      "byteOffset": 2059624
    },
    {
      "buffer": 0,
      "byteLength": 39024,
      "byteOffset": 2098648
    },
    {
      "buffer": 0,
      "byteLength": 39632,
      "byteOffset": 2137672
    },
    {
      "buffer": 0,
      "byteLength": 30732,
      "byteOffset": 2177304
    },
    {
      "buffer": 0,
      "byteLength": 30732,
      "byteOffset": 2208036
    },
    {
      "buffer": 0,
      "byteLength": 30708,
      "byteOffset": 2238768
    }
  ],
  "buffers": [
    {
      "uri": "solider-demo_data.bin",
      "byteLength": 2269476
    }
  ]
}